<?xml version="1.0" encoding="UTF-8"?>
<svg width="157px" height="134px" viewBox="0 0 157 134" version="1.1" xmlns="http://www.w3.org/2000/svg" xmlns:xlink="http://www.w3.org/1999/xlink">
    <!-- Generator: Sketch 46.2 (44496) - http://www.bohemiancoding.com/sketch -->
    <title>full lockup</title>
    <desc>Created with Sketch.</desc>
    <defs></defs>
    <g id="Page-1" stroke="none" stroke-width="1" fill="none" fill-rule="evenodd">
        <g id="full-lockup" fill="#000000">
            <g id="Group-2" transform="translate(3.000000, 39.000000)">
                <path d="M13.8836156,19.6210058 C17.3903596,16.0052792 20.8971036,12.7688247 22.4751384,13.4262295 C24.9549074,14.4629064 22.4250421,18.6854682 20.9722481,21.1380939 C19.7198396,23.2620172 6.64469396,40.7843846 6.64469396,53.0475132 C6.64469396,59.5204223 9.02427027,64.8808002 13.3826521,68.1172548 C17.1398779,70.9238677 22.0743677,71.783551 26.6080867,70.4434565 C31.9683955,68.850514 36.3768737,63.3889969 41.9375678,56.4609614 C47.9992253,48.9260906 56.1148329,39.0650181 62.3768758,39.0650181 C70.5425798,39.0650181 70.6427725,44.1725479 71.1938322,48.1422617 C52.2073182,51.4292859 44.2169514,66.7265907 44.2169514,75.348708 C44.2169514,83.9708176 51.4308248,91 60.2728294,91 C68.4134852,91 81.7892088,84.2742428 83.7680144,60.1525424 L96.0666667,60.1525424 L96.0666667,47.5101417 L83.6928699,47.5101417 C82.9414247,39.1661573 78.2323685,26.2961934 63.5040436,26.2961934 C52.2323663,26.2961934 42.5387239,35.9549875 38.7814982,40.6832453 C35.8759103,44.3495415 28.4866996,53.199222 27.3344837,54.4634621 C26.057027,55.9552654 23.9529806,58.7113087 21.7487415,58.7113087 C19.5194542,58.7113087 18.1668529,54.4887469 19.9202249,48.9766602 C21.6735969,43.4392887 26.933713,34.5137538 29.1880484,31.2014448 C33.1206114,25.4365101 35.6755249,21.4667963 35.6755249,14.6146152 C35.6755249,3.48930258 27.4597246,0 23.1013427,0 C16.4886254,0 10.7275535,5.05696027 9.4500967,6.34648513 C7.67167652,8.16699083 6.16878622,9.65879411 5.06666667,11.0241734 L13.8836206,19.6210058 L13.8836156,19.6210058 Z M60.5107246,78.8666667 C58.8753623,78.8666667 56.6333333,77.5107927 56.6333333,75.0858644 C56.6333333,71.9569245 60.457971,63.613085 71.8,60.6666667 C70.1646377,74.7208214 64.2034783,78.8666667 60.5107246,78.8666667 Z" id="Page-1-Copy-2"></path>
                <path d="M12.8929993,20.8788116 C14.2593139,19.2887821 16.3312724,17.3342718 19.1607108,14.976298 L11.3929292,5.65538888 C3.67310815,12.088869 0.0135316214,16.3456991 0.0135316214,21.0133807 C0.0135316214,22.5600632 0.371342664,23.4594814 1.1070281,24.8231071 C1.41043733,25.3854896 1.79154591,26.0191109 2.35934545,26.9222805 C2.57056668,27.2582593 2.80007565,27.61975 3.13828914,28.1500355 C3.56727259,28.8221252 3.81004879,29.2025734 4.03626983,29.55801 C4.8298449,30.8048685 5.49121741,31.8569442 6.18556572,32.9830553 C10.4215235,39.8530352 14.4058889,47.1293355 18.5288994,55.9653106 C21.0932392,61.4609169 24.1503094,73.0361582 27.522116,90.3426586 L39.431524,88.0223616 C35.8773034,69.7795832 32.6341712,57.4998395 29.5241335,50.8347545 C25.1906761,41.5477732 20.9836345,33.8648186 16.5134614,26.6149828 C15.7849563,25.4334753 15.0943836,24.3349495 14.2722509,23.0432215 C14.0414839,22.6806424 13.7939453,22.292731 13.3680771,21.6255266 C13.1787796,21.3287267 13.0259418,21.0885641 12.8929993,20.8788116 Z" id="Path-23-Copy-2" fill-rule="nonzero"></path>
            </g>
            <text id="hodes" transform="translate(79.500000, 30.000000) rotate(-27.000000) translate(-79.500000, -30.000000) " font-family="Pacifico-Regular, Pacifico" font-size="40" font-weight="normal">
                <tspan x="34.3632812" y="47">hodes</tspan>
            </text>
            <text id="ason" transform="translate(109.500000, 49.000000) rotate(-35.000000) translate(-109.500000, -49.000000) " font-family="Pacifico-Regular, Pacifico" font-size="40" font-weight="normal">
                <tspan x="74.4121094" y="66">ason</tspan>
            </text>
            <text id=".com" font-family="Pacifico-Regular, Pacifico" font-size="30" font-weight="normal">
                <tspan x="98.449707" y="95">.com</tspan>
            </text>
        </g>
    </g>
</svg>