<?xml version="1.0" encoding="UTF-8"?>
<svg width="66px" height="66px" viewBox="0 0 66 66" version="1.1" xmlns="http://www.w3.org/2000/svg" xmlns:xlink="http://www.w3.org/1999/xlink">
    <!-- Generator: Sketch 46.2 (44496) - http://www.bohemiancoding.com/sketch -->
    <title>White Lined</title>
    <desc>Created with Sketch.</desc>
    <defs></defs>
    <g id="Page-1" stroke="none" stroke-width="1" fill="none" fill-rule="evenodd">
        <g id="White-Lined">
            <g id="Group-4" transform="translate(5.000000, 5.000000)">
                <path d="M17.9066864,19.4684635 C19.0627559,18.2764657 20.2188254,17.2095026 20.7390566,17.4262295 C21.5565629,17.7679911 20.7225413,19.1600445 20.2435983,19.9686024 C19.8307163,20.6687969 15.5202288,26.4454015 15.5202288,30.4881912 C15.5202288,32.6221173 16.3047045,34.3892748 17.7415337,35.4562378 C18.9801795,36.3814949 20.6069344,36.6649069 22.1015671,36.2231175 C23.8687018,35.6979717 25.3220463,33.8974715 27.1552421,31.6135038 C29.1535908,29.1294804 31.8290658,25.8785774 33.8934755,25.8785774 C36.5854659,25.8785774 36.6184964,27.5623784 36.8001645,28.8710753 C30.5408741,29.9547096 27.9066873,34.9977772 27.9066873,37.8402334 C27.9066873,40.6826871 30.2848873,43 33.1998339,43 C35.8835665,43 40.2931458,40.7827174 40.9454993,32.8305085 L45,32.8305085 L45,28.6626841 L40.9207263,28.6626841 C40.6729972,25.91192 39.120561,21.6690747 34.2650693,21.6690747 C30.5491318,21.6690747 27.3534255,24.8532926 26.1147796,26.4120589 C25.1568935,27.620728 22.72089,30.5382051 22.3410386,30.9549875 C21.919899,31.4467908 21.2262573,32.3553765 20.4995851,32.3553765 C19.7646552,32.3553765 19.3187427,30.9633231 19.8967774,29.1461517 C20.4748122,27.3206446 22.2089164,24.3781606 22.9521039,23.2861906 C24.2485532,21.3856627 25.0908324,20.0769658 25.0908324,17.818005 C25.0908324,14.1503195 22.3823268,13 20.9454976,13 C18.7654809,13 16.8662264,14.6671298 16.4450868,15.0922478 C15.8587945,15.6924146 15.3633361,16.1842178 15,16.6343429 L17.9066881,19.4684635 L17.9066864,19.4684635 Z M33.2782609,39 C32.7391304,39 32,38.5530086 32,37.7535817 C32,36.722063 33.2608696,33.9713467 37,33 C36.4608696,37.6332378 34.4956522,39 33.2782609,39 Z" id="Page-1-Copy" fill="#FFFFFF"></path>
                <circle id="Oval-Copy-3" stroke="#FFFFFF" stroke-width="6" stroke-dasharray="2" cx="28" cy="28" r="28"></circle>
                <path d="M18.3659846,17.4008275 C16.3447491,19.0852679 15.3341313,20.2608215 15.3341313,20.9274881 C15.3341313,21.3934013 17.9943735,24.6262403 21.2504999,31.6044063 C22.1858369,33.6089159 23.2243318,37.5410563 24.3659846,43.4008275" id="Path-23-Copy" stroke="#FFFFFF" stroke-width="4" transform="translate(19.850058, 30.400828) rotate(-6.000000) translate(-19.850058, -30.400828) "></path>
            </g>
        </g>
    </g>
</svg>