<?xml version="1.0" encoding="UTF-8"?>
<svg width="66px" height="66px" viewBox="0 0 66 66" version="1.1" xmlns="http://www.w3.org/2000/svg" xmlns:xlink="http://www.w3.org/1999/xlink">
    <!-- Generator: Sketch 46.2 (44496) - http://www.bohemiancoding.com/sketch -->
    <title>White Solid</title>
    <desc>Created with Sketch.</desc>
    <defs></defs>
    <g id="Page-1" stroke="none" stroke-width="1" fill="none" fill-rule="evenodd">
        <g id="White-Solid">
            <g id="Group-5" transform="translate(5.000000, 5.000000)">
                <circle id="Oval-Copy-4" stroke="#FFFFFF" stroke-width="6" cx="28" cy="28" r="28"></circle>
                <g id="Group-2" transform="translate(14.000000, 13.000000)">
                    <path d="M3.90668645,6.46846346 C5.06275591,5.27646568 6.21882537,4.20950264 6.73905663,4.42622951 C7.55656289,4.76799111 6.72254135,6.16004446 6.24359829,6.96860239 C5.83071634,7.66879689 1.52022878,13.4454015 1.52022878,17.4881912 C1.52022878,19.6221173 2.30470448,21.3892748 3.74153367,22.4562378 C4.98017952,23.3814949 6.6069344,23.6649069 8.10156706,23.2231175 C9.86870181,22.6979717 11.3220463,20.8974715 13.1552421,18.6135038 C15.1535908,16.1294804 17.8290658,12.8785774 19.8934755,12.8785774 C22.5854659,12.8785774 22.6184964,14.5623784 22.8001645,15.8710753 C16.5408741,16.9547096 13.9066873,21.9977772 13.9066873,24.8402334 C13.9066873,27.6826871 16.2848873,30 19.1998339,30 C21.8835665,30 26.2931458,27.7827174 26.9454993,19.8305085 L31,19.8305085 L31,15.6626841 L26.9207263,15.6626841 C26.6729972,12.91192 25.120561,8.66907474 20.2650693,8.66907474 C16.5491318,8.66907474 13.3534255,11.8532926 12.1147796,13.4120589 C11.1568935,14.620728 8.72088999,17.5382051 8.34103859,17.9549875 C7.919899,18.4467908 7.22625733,19.3553765 6.49958509,19.3553765 C5.76465522,19.3553765 5.31874272,17.9633231 5.89677745,16.1461517 C6.47481218,14.3206446 8.20891637,11.3781606 8.95210388,10.2861906 C10.2485532,8.38566268 11.0908324,7.07696582 11.0908324,4.818005 C11.0908324,1.15031953 8.38232679,0 6.9454976,0 C4.76548091,0 2.86622641,1.66712976 2.44508682,2.09224785 C1.85879446,2.69241456 1.36333612,3.18421784 1,3.63434287 L3.9066881,6.46846346 L3.90668645,6.46846346 Z M19.2782609,26 C18.7391304,26 18,25.5530086 18,24.7535817 C18,23.722063 19.2608696,20.9713467 23,20 C22.4608696,24.6332378 20.4956522,26 19.2782609,26 Z" id="Page-1-Copy-2" fill="#FFFFFF"></path>
                    <path d="M4.36598461,4.40082751 C2.34474907,6.08526793 1.3341313,7.26082147 1.3341313,7.92748814 C1.3341313,8.39340132 3.99437352,11.6262403 7.25049994,18.6044063 C8.18583688,20.6089159 9.22433177,24.5410563 10.3659846,30.4008275" id="Path-23-Copy-2" stroke="#FFFFFF" stroke-width="4" transform="translate(5.850058, 17.400828) rotate(-6.000000) translate(-5.850058, -17.400828) "></path>
                </g>
            </g>
        </g>
    </g>
</svg>